<svg version="1.1" xmlns="http://www.w3.org/2000/svg" viewBox="0 0 764.5004269595812 677.1936132996689">
  <!-- svg-source:excalidraw -->
  <defs>
    <style>
      @font-face {
        font-family: "Virgil";
        src: url("https://excalidraw.com/FG_Virgil.woff2");
      }
      @font-face {
        font-family: "Cascadia";
        src: url("https://excalidraw.com/Cascadia.woff2");
      }
    </style>
  </defs>
  <rect x="0" y="0" width="764.5004269595812" height="677.1936132996689" fill="#ffffff"></rect><g><g transform="translate(11.562707685351597 333.10081658965584) rotate(0 113.12980918420283 -8.287938545231924)"><path d="M0.24260766175511145 -50.922065548454476 C0.7597085666600267 -51.386265349747426, 1.4980620044262098 -53.62465173044055, 1.8699296472568379 -54.31438619335132 C2.241797290087466 -55.00412065626209, 1.6502674006138114 -53.57283817173071, 2.47381351873888 -55.060472325919115 C3.297359636863949 -56.54810648010752, 4.624616900219012 -60.06768739671084, 6.8112063560072516 -63.24019111848175 C8.997795811795491 -66.41269484025266, 13.51275663106477 -70.98001766276967, 15.593350253468316 -74.09549465654457 C17.673943875871863 -77.21097165031948, 16.950634904882605 -79.64177288696965, 19.29476809042853 -81.93305308113116 C21.638901275974455 -84.22433327529268, 26.09589880692435 -85.29055076535752, 29.65814936674387 -87.84317582151363 C33.22039992656339 -90.39580087766973, 37.28446545337959 -94.78053663287645, 40.66827144934565 -97.2488034180678 C44.05207744531172 -99.71707020325914, 41.06212909533412 -99.06454148414322, 49.96098534254027 -102.65277653266173 C58.859841589746416 -106.24101158118025, 85.591933160384 -115.68845175656975, 94.06140893258255 -118.77821370917889 C102.5308847047811 -121.86797566178802, 99.13816514315494 -120.7339565928663, 100.77783997573152 -121.19134824831659 C102.41751480830811 -121.64873990376687, 100.2502226756857 -121.558181553691, 103.89945792804212 -121.52256364188054 C107.54869318039854 -121.48694573007008, 118.95919499422743 -121.08833438716829, 122.67325148987 -120.97764077745379 C126.38730798551256 -120.86694716773928, 123.25240877733339 -121.61059498551336, 126.18379690189752 -120.8584019835935 C129.11518502646166 -120.10620898167363, 136.45971480927128 -117.508652974729, 140.26158023725483 -116.46448276593456 C144.0634456652384 -115.42031255714012, 146.25358367652285 -115.40796180317804, 148.99498946979884 -114.59338073082688 C151.73639526307483 -113.77879965847572, 153.29275262968613 -113.27136327569482, 156.7100149969107 -111.57699633182759 C160.12727736413527 -109.88262938796035, 165.3536504146543 -107.74506445462413, 169.49856367314626 -104.42717906762343 C173.64347693163822 -101.10929368062273, 178.5943615349926 -94.57070695670448, 181.5794945478624 -91.66968400982337 C184.5646275607322 -88.76866106294226, 185.3078655524321 -88.37954270545143, 187.4093617503651 -87.02104138633678 C189.51085794829808 -85.66254006722212, 191.48501221212453 -86.78578759132638, 194.18847173546035 -83.51867609513542 C196.89193125879618 -80.25156459894446, 201.506560656006 -70.84160382420518, 203.63011889038006 -67.41837240919098 C205.75367712475412 -63.99514099417678, 205.5662221118945 -65.22696865459572, 206.9298211417047 -62.9792876050502 C208.29342017151492 -60.73160655550469, 209.2332315865763 -59.47380335778567, 211.81171306924136 -53.9322861119179 C214.39019455190643 -48.390768866050124, 220.2874691994606 -35.589475528477394, 222.40071003769512 -29.730184129843543 C224.51395087592965 -23.870892731209693, 223.85868145089233 -21.756534659668404, 224.49115809864847 -18.776537720114803 C225.1236347464046 -15.796540780561203, 226.2416885875063 -15.090318027838082, 226.19556992423193 -11.850202492521946 C226.14945126095756 -8.61008695720581, 224.73930237301747 -2.5761961732948784, 224.21444611900222 0.66415549178201 C223.68958986498697 3.904507156858898, 223.40659754168627 6.222390803367779, 223.04643240014047 7.591907497939383 C222.68626725859468 8.961424192510988, 223.51487606069344 4.514784746038325, 222.05345526972744 8.881255659211634 C220.59203447876143 13.247726572384943, 218.0047241578576 25.05271589858684, 214.27790765434452 33.790732976979236 C210.55109115083144 42.52875005537163, 205.16048038649868 53.981507068407026, 199.69255624864894 61.309358129566 C194.2246321107992 68.63720919072497, 184.8710890902807 74.42812168789267, 181.47036282724616 77.75783934393309 C178.06963656421163 81.0875569999735, 185.21177920025454 77.55518691339883, 179.2881986704417 81.28766406580846 C173.36461814062883 85.02014121821809, 153.491341986304 96.47464857329777, 145.928879648369 100.15270225839085 C138.36641731043397 103.83075594348392, 136.2605967354286 102.7999934101335, 133.9134246428316 103.35598617636688 C131.56625255023457 103.91197894260027, 133.1495681328769 103.30136830253575, 131.84584709278684 103.48865885579117 C130.54212605269677 103.6759494090466, 132.68229019533038 104.24531211699181, 126.09109840229122 104.47972949589943 C119.49990660925206 104.71414687480706, 99.60394889465489 105.10257679866591, 92.29869633455186 104.8951631292369 C84.99344377444883 104.6877494598079, 86.04103325795468 104.64549422906683, 82.25958304167308 103.23524747932545 C78.47813282539148 101.82500072958408, 73.71475889175773 99.04706589617328, 69.60999503686229 96.43368263078867 C65.50523118196685 93.82029936540405, 60.170254492945254 88.934124587164, 57.630999912300474 87.55494788701779 C55.091745331655694 86.17577118687157, 56.08067970667311 89.35780225015003, 54.374467552993615 88.15862242991139 C52.66825539931412 86.95944260967275, 51.69212117140219 85.02511780075031, 47.393726990223485 80.3598689655859 C43.09533280904478 75.6946201304215, 32.11793566544733 64.48303149715933, 28.584102465921376 60.167129418924915 C25.05026926639543 55.8512273406905, 26.704836029759793 56.03123848197017, 26.190727793067794 54.46445649617941 C25.676619556375794 52.89767451038865, 25.90937639364607 52.306849846754574, 25.49945304576938 50.766437504180345 C25.089529697892686 49.22602516160612, 24.66403809755026 47.49777354938365, 23.731187705807635 45.221982440734045 C22.79833731406501 42.94619133208444, 20.892254785632648 38.513182275758254, 19.902350695313633 37.111690852282706 C18.912446604994617 35.71019942880716, 20.356783793886763 45.32422405617613, 17.79176316389355 36.81303389988077 C15.226742533900333 28.301843743585415, 7.653905910523898 0.5910683240212933, 4.5122269153543435 -13.955450085489431 C1.3705479201847885 -28.501968495000156, -0.10200618885067014 -44.32324373347885, -1.0583108071237803 -50.46607655718357 C-2.0146154253968906 -56.60890938088829, -1.338056376413979 -50.57395196790796, -1.2256007942843172 -50.81244702771778 M-0.8527582976135348 -51.652290232372536 C-0.36649883267100664 -51.95363845805247, 0.7839381796286391 -52.16579853397607, 1.2742122386370167 -53.02941768073427 C1.7644862976453943 -53.893036827492466, 1.1629139374781512 -55.30185719315983, 2.0888860564367313 -56.83400511292174 C3.0148581753953114 -58.36615303268364, 4.767433495095361 -58.8978361204696, 6.830044952388498 -62.22230519930571 C8.892656409681635 -65.54677427814183, 12.2037120721001 -73.28992344634098, 14.464554800195556 -76.7808195859384 C16.725397528291012 -80.27171572553583, 17.718556134520767 -81.10609702338328, 20.39510132096124 -83.16768203689027 C23.07164650740171 -85.22926705039725, 27.32550998440606 -86.78940254569014, 30.52382591883839 -89.1503296669803 C33.72214185327072 -91.51125678827046, 36.590177017242446 -94.9276374087516, 39.58499692755521 -97.33324476463119 C42.57981683786797 -99.73885212051078, 39.2405768259126 -100.0141387302313, 48.49274538071496 -103.58397380225789 C57.74491393551732 -107.15380887428448, 86.32326724230947 -115.90098313308806, 95.09800825636935 -118.75225519679073 C103.87274927042924 -121.6035272604934, 99.35608922785558 -120.150464008079, 101.14119146507427 -120.69160618447387 C102.92629370229297 -121.23274836086874, 102.23078294388665 -121.90347522640911, 105.80862167968155 -121.99910825515994 C109.38646041547645 -122.09474128391076, 118.79831921845064 -121.47290690924973, 122.6082238798437 -121.26540435697883 C126.41812854123677 -121.05790180470794, 125.67219538439768 -121.54128538436291, 128.66804964803995 -120.75409294153461 C131.66390391168224 -119.96690049870631, 137.54347194279242 -117.71806077579832, 140.58334946169737 -116.54224970000902 C143.6232269806023 -115.36643862421973, 143.9196182594134 -114.55261109246567, 146.90731476146968 -113.69922648679885 C149.89501126352596 -112.84584188113203, 154.43690942665563 -112.94861676224617, 158.509528474035 -111.4219420660081 C162.58214752141436 -109.89526736977002, 167.16060109470905 -107.84878753303147, 171.34302904574594 -104.53917830937039 C175.52545699678282 -101.2295690857093, 180.8576437339358 -94.265681769607, 183.6040961802563 -91.56428672404158 C186.35054862657682 -88.86289167847616, 186.13867193536387 -89.45463220603514, 187.82174372366896 -88.33080803597787 C189.50481551197404 -87.20698386592059, 190.95972953594185 -88.10584960582419, 193.70252691008676 -84.82134170369794 C196.44532428423167 -81.53683380157169, 202.11305883190272 -72.12815511439689, 204.2785279685385 -68.62376062322035 C206.44399710517428 -65.11936613204381, 205.2088932678613 -66.13759898030798, 206.69534172990151 -63.7949747566387 C208.18179019194173 -61.452350532969426, 210.84677912990082 -60.33033953939203, 213.1972187407798 -54.56801528120469 C215.54765835165875 -48.805691023017346, 218.80944687922732 -35.09489550939824, 220.79797939517525 -29.221029207514654 C222.78651191112317 -23.347162905631063, 223.97078242048258 -22.180631568871036, 225.12841383646725 -19.324817469903145 C226.2860452524519 -16.469003370935255, 228.2397844670983 -15.724114242336661, 227.74376789108322 -12.086144613707308 C227.24775131506814 -8.448174985077955, 222.84223231208634 -0.49510738065043736, 222.15231438037677 2.503000301872969 C221.4623964486672 5.501107984396375, 223.35370728150394 4.526641542547331, 223.60426030082584 5.902501481433129 C223.85481332014774 7.278361420318927, 225.24230699682877 5.823502935598203, 223.6556324963081 10.758159935187756 C222.06895799578743 15.692816934777309, 218.14045240267632 27.31082154432538, 214.08421329770184 35.510443478970444 C210.02797419272736 43.71006541361551, 204.5881058316634 53.059370615575695, 199.31819786646116 59.955891543058144 C194.04828990125893 66.85241247054059, 186.03237446925093 73.19464995869606, 182.46476550648836 76.88956904386512 C178.8971565437258 80.58448812903418, 184.28793915078657 78.28215904449466, 177.91254408988584 82.12540605407249 C171.5371490289851 85.96865306365031, 151.45308211295105 96.17230195329687, 144.21239514108393 99.94905110133206 C136.9717081692168 103.72580024936725, 136.72690267204078 104.39385961709984, 134.46842225868303 104.78590094228365 C132.2099418453253 105.17794226746746, 131.9752446051012 102.46035904148641, 130.66151266093743 102.30129905243494 C129.34778071677366 102.14223906338347, 133.01425008311062 103.31105515739704, 126.58603059370039 103.8315410079748 C120.15781110429015 104.35202685855258, 99.6962522947318 105.580001911949, 92.09219572447597 105.42421415590158 C84.48813915422014 105.26842639985416, 84.61867654636588 104.38466912610427, 80.96169117216535 102.89681447169028 C77.30470579796481 101.40895981727628, 74.34621378633767 99.03628216479467, 70.15028347927282 96.4970862294176 C65.95435317220796 93.95789029404054, 58.5987571158253 88.96423362965203, 55.78610932977624 87.66163885942792 C52.973461543727176 86.35904408920382, 55.12426964678147 89.76780122074057, 53.274396762978455 88.68151760807295 C51.42452387917544 87.59523399540534, 48.44243054696397 86.00898554313231, 44.68687202695813 81.14393718342222 C40.931313506952286 76.27888882371214, 34.06772818648449 63.82781448197487, 30.741045642943416 59.49122744981246 C27.414363099402344 55.15464041765006, 25.754296060591187 56.64638674431447, 24.726776765711705 55.12441499044777 C23.699257470832222 53.60244323658107, 25.181148015387425 52.25480292367598, 24.57592987366651 50.359396926612234 C23.970711731945595 48.46399092954849, 21.87701417061417 46.16579641738362, 21.09546791538621 43.7519790080653 C20.313921660158247 41.33816159874698, 20.364116012228585 36.92645128829138, 19.886652342298746 35.876492470702296 C19.409188672368906 34.82653365311321, 21.13528778052108 45.99016288115013, 18.230685895807177 37.45222610253078 C15.326084011093274 28.914289323911433, 5.626926230499812 -0.6450661187029958, 2.45904103401533 -15.351128201013784 C-0.7088441624691515 -30.057190283324573, -0.2076909329330613 -44.91152533458746, -0.7766252830997109 -50.78414639133395 C-1.3455596332663604 -56.65676744808044, -0.9092234901577015 -50.5016994911338, -0.9545650669845676 -50.58685454149271" stroke="#000000" stroke-width="1" fill="none"></path></g></g><g transform="translate(38.68602652734819 272.7695618396603) rotate(0 31 26.5)"><path d="M33.94238261103037 -0.31625474910813267 C40.1826518662325 0.061287820884660504, 48.63797965554462 3.6947537326462463, 53.31937263178004 8.054472367567705 C58.00076560801546 12.414191002489163, 61.745422596117436 20.053620833107235, 62.0307404684429 25.84205706042062 C62.316058340768365 31.630493287734, 59.121904802119545 38.39295852512183, 55.03127986573285 42.785089731448 C50.94065492934615 47.177220937774166, 43.73142289690122 51.143702431490325, 37.48699085012274 52.19484429837763 C31.242558803344252 53.24598616526494, 23.530970043175174 51.50696604443662, 17.564687585061947 49.09194093277182 C11.59840512694872 46.676915821107016, 4.267876531910037 42.66652004187068, 1.6892961014433787 37.70469362838881 C-0.8892843290232793 32.74286721490694, -0.09412706778705937 24.817797133055773, 2.0932050022619997 19.32098245188058 C4.280537072311059 13.82416777070539, 8.478678273173273 7.720403344980074, 14.813288521737732 4.7238055413376685 C21.14789877030219 1.727207737695263, 35.3013310034447 1.8131630691775331, 40.10086649364875 1.341395630026149 C44.9004019838528 0.8696281908747647, 43.934287752981 1.3964544248699677, 43.61050146296201 1.8932009064293638 M38.38570939898357 1.2621222850819365 C44.79478975958088 1.9311975718216732, 52.28918322658909 6.225144900206393, 56.361254417048684 10.478313432304759 C60.43332560750828 14.731481964403125, 62.95883242667053 21.234701544885223, 62.81813654174116 26.78113347767213 C62.67744065681179 32.32756541045904, 59.9029336962944 39.37396993337999, 55.51707910747244 43.75690502902621 C51.131224518650484 48.139840124672425, 43.186589145485534 52.299504229299835, 36.50300900880941 53.07874405154942 C29.81942887213328 53.85798387379901, 21.01226637524889 51.4219304243242, 15.415598287415676 48.432343962523724 C9.818930199582464 45.442757500723246, 5.1274763956244485 40.27883434659868, 2.923000481810128 35.14122528074654 C0.7185245679958077 30.003616214894404, 0.09254675349202257 22.80786109736558, 2.188742804529756 17.606689567410903 C4.284938855567489 12.405518037456225, 9.630062527621927 7.001906321555712, 15.500176788036528 3.9341961010184647 C21.37029104845113 0.8664858804812181, 33.804004962733565 -0.35265138531169526, 37.409428367017355 -0.7995717558125754 C41.014851771301146 -1.2464921263134556, 37.24567316831856 0.6026194414014725, 37.13271721373926 1.2526738780131836" stroke="#000000" stroke-width="1" fill="none"></path></g><g transform="translate(57.68602652734819 345.7695618396603) rotate(0 38.5 29)"><path d="M51.030407030879246 1.7139468431470775 C58.185753650302495 2.9831674708740223, 65.49528857155293 7.801197761370466, 69.92398136258524 12.89856837607408 C74.35267415361754 17.99593899077769, 78.23207165251047 26.130099439244884, 77.60256377707304 32.298170531368754 C76.97305590163562 38.46624162349263, 71.7555108006348 45.57831119408599, 66.14693410996068 49.90699492881731 C60.53835741928656 54.23567866354863, 51.80998746497737 57.591537204557454, 43.95110363302834 58.27027293975668 C36.09221980107931 58.949008674955905, 25.85312961931187 57.28103319178211, 18.993631118266528 53.979409340012666 C12.134132617221187 50.677785488243224, 5.463506829012749 44.23357336566726, 2.794112626756288 38.460529829140036 C0.12471842449982651 32.68748629261281, 0.3531220981550032 24.96108074901142, 2.9772659047277585 19.34114812084932 C5.601409711300514 13.721215492687218, 11.841370623333788 8.007427590996782, 18.53897546619282 4.740934060167444 C25.236580309051853 1.4744405293381053, 36.18080686918842 -0.28183161194651163, 43.16289496188195 -0.25781306412671157 C50.14498305457548 -0.2337945163069115, 56.54362661436613 3.0938042801794623, 60.43150402235402 4.885045347086244 C64.3193814303419 6.676286413993026, 67.06972141805085 10.031572872093355, 66.49015940980925 10.489633337313979 M41.315548781303065 0.21413186341564838 C49.16478681048054 0.2940863211874607, 58.39755408736479 4.268771219653312, 64.50600439820839 8.087971424735898 C70.614454709052 11.907171629818484, 76.8981897488653 17.36489931187481, 77.96625064636468 23.129333093911164 C79.03431154386406 28.893766875947517, 74.96745432871589 36.96600301810244, 70.91436978320465 42.674574116954005 C66.86128523769341 48.38314521580557, 60.98641728628649 55.26570042993476, 53.6477433732972 57.38075968702053 C46.30906946030792 59.4958189441063, 34.69310833131179 57.49033939339092, 26.88232630526894 55.36492965946861 C19.07154427922609 53.2395199255463, 11.378709165575486 49.40412102515615, 6.783051217040093 44.628301283486664 C2.1873932685047004 39.85248154181718, -1.2297176220313681 32.72974870519191, -0.6916213859434137 26.710011209451686 C-0.15352514985545918 20.69027371371146, 4.225944172051175 13.08803682161513, 10.01162863356782 8.509876309045314 C15.797313095084466 3.9317157964754976, 29.04803746258265 0.8030067444992, 34.02248538315646 -0.7589518659672123 C38.996933303730266 -2.3209104764336246, 38.847099356114285 -0.9768403573656528, 39.85831615701068 -0.8618753537531596 C40.86953295790707 -0.7469103501406664, 39.96584788303729 -0.7807913554272558, 40.089786188534816 -0.06916184429225325" stroke="#000000" stroke-width="1" fill="none"></path></g><g transform="translate(116.18602652734819 232.7695618396603) rotate(0 38.5 29)"><path d="M51.00383314213299 1.6963531710672406 C58.3683360079787 2.9634054881038674, 66.69470423752254 7.746029696153239, 71.14794366992771 12.693417210481567 C75.60118310233288 17.640804724809893, 78.42713413807581 25.277648643330394, 77.72326973656403 31.380678257037207 C77.01940533505226 37.48370787074402, 72.54752733401291 44.989392520847744, 66.92475726085699 49.31159489272244 C61.30198718770107 53.633797264597135, 51.89072974922301 56.53234324529225, 43.986649297628524 57.31389248828539 C36.082568846034036 58.09544173127853, 26.432476003292823 56.954118818721106, 19.500274551290047 54.00089035068126 C12.568073099287272 51.047661882641414, 5.396183555397533 45.20638726844476, 2.39344058561187 39.59452168004633 C-0.6093023841737923 33.9826560916479, -1.0681701672717296 26.30053819044231, 1.4838167325760736 20.32969682029066 C4.035803632423876 14.35885545013901, 10.890372434767066 7.111765365992204, 17.70536198469869 3.769473459136428 C24.520351534630315 0.4271815522806528, 35.91445514296697 0.3559975416914665, 42.37375403216583 0.2759453791560098 C48.83305292136468 0.1958932166205531, 53.231286569599845 2.103582630347204, 56.461155319891844 3.2891604839236877 C59.69102407018384 4.474738337500171, 62.22703281780271 7.065680474669304, 61.752966533917814 7.38941250061491 M28.51032797575315 -0.39682817451148367 C35.59881535180945 -2.5556431965722153, 47.066522736088956 -0.8265217296427774, 54.295940905181745 1.8494523806947107 C61.52535907427453 4.525426491032199, 68.29398689538449 10.295743741902424, 71.88683699030987 15.659016487513444 C75.47968708523526 21.022289233124464, 77.12146525946785 28.280859230745993, 75.85304147473403 34.02908885436083 C74.5846176900002 39.77731847797567, 70.55727225469101 46.30948215779415, 64.2762942819069 50.14839422920247 C57.99531630912279 53.98730630061078, 46.51222564475832 56.86043812923133, 38.16717363802938 57.06256128281074 C29.822121631300448 57.26468443639015, 20.41717796751641 54.788803561383915, 14.205982241533302 51.36113315067891 C7.994786515550195 47.933462739973905, 2.7405440315391365 42.3627407262929, 0.8999992821307359 36.4965388185807 C-0.940545467277665 30.630336910868508, -0.24642652056329117 21.87342623898884, 3.162713745082897 16.163921704405738 C6.571854010729085 10.454417169822634, 17.167992905794087 4.942354515615708, 21.354840876007863 2.239511611082083 C25.54168884622164 -0.46333129345154234, 26.931532715992372 -0.10358530749389772, 28.283801566365554 -0.053135722796014306 C29.636070416738736 -0.002686138098130897, 29.42738403607781 2.022721576371074, 29.468453978246963 2.5422091192693834" stroke="#000000" stroke-width="1" fill="none"></path></g><g transform="translate(141.1860265273482 305.7695618396603) rotate(0 38.5 29)"><path d="M51.828749270506414 2.752310805195826 C59.042824114066306 4.441275107861369, 67.24313361302373 9.735808537249836, 71.41620582114305 14.855892046601761 C75.58927802926237 19.97597555595369, 78.0235673751861 27.451175407470476, 76.86718251922233 33.47281186130738 C75.71079766325855 39.49444831514428, 70.3229431511787 46.91133818674802, 64.47789668536038 50.985710769623175 C58.63285021954206 55.06008335249833, 49.62107775318201 57.65724788033352, 41.796903724312386 57.91904735855831 C33.972729695442766 58.1808468367831, 24.12565014939748 55.91247542398537, 17.532852512142654 52.5565076389719 C10.940054874887828 49.20053985395843, 4.872050497802386 43.45994024627627, 2.2401179007834315 37.78324064847751 C-0.39181469623552223 32.10654105067875, -1.1121491859934962 24.12813069075176, 1.741256930028932 18.49631005217936 C4.594663046051361 12.864489413606961, 12.27587455433693 6.97044909573458, 19.360554596918 3.992316817043111 C26.44523463949907 1.0141845383516426, 37.25472580919054 0.5962776561739999, 44.24933718551536 0.6275163800305492 C51.24394856184018 0.6587551038870986, 57.68037157693952 2.6711845162050167, 61.32822285486691 4.179749160182407 C64.9760741327943 5.688313804159797, 66.54176868810528 8.966316795594047, 66.13644485307968 9.678904243894891 M34.69756046536953 -0.7129647014844238 C42.46708336979105 -1.6476931318217685, 53.34552399472705 0.8724073662275771, 59.99365059338945 4.549647705552967 C66.64177719205183 8.226888044878358, 72.36534754708678 15.731161395981122, 74.58632005734388 21.350477334467918 C76.80729256760098 26.969793272954714, 76.27435913437242 32.97017281862014, 73.31948565493202 38.26554333647374 C70.36461217549163 43.56091385432734, 63.73835171459755 49.930340202844924, 56.85707918070153 53.12270044158953 C49.975806646805516 56.315060680334135, 39.72870627630107 58.21403427844402, 32.031850451555925 57.41970476894136 C24.33499462681078 56.6253752594387, 16.12643871429403 52.71714186921646, 10.675944232230663 48.35672338457357 C5.2254497501672965 43.99630489993068, 0.11994356971678022 37.303943044883404, -0.6711164408242709 31.257193861084 C-1.462176451365322 25.2104446772846, 1.4199096368261026 16.993618580686288, 5.929584168984356 12.076228281777166 C10.43925870114261 7.158837982868044, 21.309998453908683 3.9493841546162134, 26.386930752125245 1.7528520676292736 C31.463863050341807 -0.4436800193576662, 35.0004647436285 -0.8522786934160738, 36.39117795828372 -1.1029642401444733 C37.78189117293894 -1.3536497868728727, 34.88479223883373 -0.40418051555234114, 34.73121004005656 0.24873878725887621" stroke="#000000" stroke-width="1" fill="none"></path></g><g><g transform="translate(59.68602652734819 290.2695618396603) rotate(0 0.3525392907019409 2.383161043459552)"><path d="M-0.5923891838639974 0.7817057009786368 C-0.539658373221755 1.6173328793297213, 0.6230324212461709 4.131339307253559, 0.9158919397741554 4.619824838265776 M1.2974677652679385 0.14649724865332248 C1.2198609626851977 0.6651964438396195, 0.4965055734477936 2.033869231784095, 0.44868974452838284 2.8226581295765936" stroke="#000000" stroke-width="1" fill="none"></path></g></g><g><g transform="translate(73.68602652734819 290.2695618396603) rotate(0 0.5623144817133721 2.4071210815943687)"><path d="M-0.44125074706971645 0.3851881977170706 C-0.11994833710292979 0.9404863711446524, 1.0880291445801655 3.4881713625043633, 1.1194920007139444 3.998366462811828 M1.5279538813792168 -0.45819194382056594 C1.816168767766406 0.19925551885738957, 0.37687557653213527 4.49428811604157, 0.49667983746156086 5.272434107009321" stroke="#000000" stroke-width="1" fill="none"></path></g></g><g><g transform="translate(51.68602652734819 303.2695618396603) rotate(0 15.850936494534835 1.9105246149674997)"><path d="M1.1624143425375222 -1.0972713712602853 C5.575738186016678 0.29131054443617677, 21.175985310847558 8.67027325592935, 26.213637894764542 7.914818179234862 C31.251290478681526 7.1593631025403734, 30.27700363236169 -3.740995602185528, 31.388329846039415 -5.630001831427217 M0.3135431430302562 0.9410572134889663 C5.1333407155238095 2.5630123831269644, 23.514758730089913 10.381993503514678, 28.512752325888723 9.40752297455445 C33.51074592168753 8.433052445594221, 29.455074823653945 -2.4365207336905104, 30.301504717823118 -4.905765960272402" stroke="#000000" stroke-width="1" fill="none"></path></g></g><g><g transform="translate(142.6860265273482 250.2695618396603) rotate(0 -0.027793397661298513 3.6611836070381116)"><path d="M0.5449314113706349 0.38415827192366114 C0.25631173811852925 1.673910719528794, -1.1864543203264475 6.513503522053361, -1.0960559729486703 7.782129794731736 M-0.6281183269992472 -0.45976258065551523 C-0.6162846175208689 0.445227650143206, 0.7870382925495505 4.745419659353793, 1.0404691776260733 5.807673188187182" stroke="#000000" stroke-width="1" fill="none"></path></g></g><g><g transform="translate(158.6860265273482 249.2695618396603) rotate(0 0.39659967981282307 3.9131442431360597)"><path d="M-1.171161938086152 -1.1579133566468953 C-0.9569505973408619 0.521049092585842, 1.551307717586557 7.3915022873630125, 1.96436129771173 8.984201842918992 M0.4148393150791527 0.8485781857743859 C0.4084903209035596 2.259613669055204, 1.0371254003668824 5.646867776451011, 0.9976055153831838 7.115833061672747" stroke="#000000" stroke-width="1" fill="none"></path></g></g><g><g transform="translate(129.1860265273482 264.7695618396603) rotate(0 22.69963537192899 4.822641171434299)"><path d="M-0.47659231983125205 0.8121294256299734 C0.9065867686023314 2.583240536476175, 1.7450729274501393 8.681947612389923, 8.699504584446549 10.18579581938684 C15.65393624144296 11.689644026383757, 35.15986434059839 12.078251691286763, 41.249997622147205 9.83521866761148 C47.34013090369602 7.592185643936197, 44.804056769981976 -1.3089895331611237, 45.240304273739454 -3.272402322664857 M1.4740579829178753 0.19289342874661086 C2.7253848039669295 2.2232056209879616, 1.6388673454088467 10.052296897117047, 8.118699027653783 11.820763875786215 C14.598530709898718 13.589230854455382, 34.060187403714906 13.202831388854733, 40.353048076387495 10.80369530076161 C46.645908749060084 8.404559212668488, 44.980638073440645 -0.5628902801436682, 45.87586306368932 -2.574052652772516" stroke="#000000" stroke-width="1" fill="none"></path></g></g><g><g transform="translate(84.18602652734819 364.7695618396603) rotate(0 -0.7127153967455797 4.514274693969639)"><path d="M0.3523805681616068 0.9624057289212942 C0.3885964099317789 1.987303816899657, -0.6186640437692403 6.3179432149976495, -0.513059240207076 7.217415964230895 M-0.9217583628930152 0.42206479126587526 C-1.0245504930056633 2.1431521236337723, -2.007081535700709 7.497190191093832, -1.7304608049429955 8.606484596673399" stroke="#000000" stroke-width="1" fill="none"></path></g></g><g><g transform="translate(100.68602652734819 364.2695618396603) rotate(0 0.37048645699394456 4.24688110385091)"><path d="M1.1504261489957572 1.0206381741911172 C1.1238583759715162 2.2676665210475524, 0.7199752724419037 5.626376043135922, 0.5253063794225454 6.464241105690599 M0.2952611478790641 0.5108692703023552 C0.05297400520493589 2.048205247459312, -0.1844065784787139 6.880050254004697, -0.4094532350078226 7.982892937399447" stroke="#000000" stroke-width="1" fill="none"></path></g></g><g><g transform="translate(73.18602652734819 376.2695618396603) rotate(0 21.163588935031555 7.295609266659426)"><path d="M-0.8045449789613486 0.6093205567449331 C-0.20461085004111135 2.3129909988492727, -1.4299828505764403 7.764486491307617, 4.512594634667039 9.955610012635589 C10.455172119910518 12.14673353396356, 28.54408857660989 14.833014869317411, 34.85091993249953 13.756061684712767 C41.157751288389164 12.679108500108123, 41.07742348747949 5.925830789034565, 42.35358277000487 3.49389090500772 C43.62974205253025 1.0619510209808745, 42.74468415416777 -0.38452750084300835, 42.50787562765181 -0.8355776194483041 C42.271067101135856 -1.2866277380535998, 40.90634014047682 0.6782542900492747, 40.9327316109091 0.787590193375945 M0.973930177744478 -0.11639009630307551 C1.3808084355356793 1.7673250761069357, -1.6280927160816883 8.653168687466533, 3.83366135424003 11.207230520490556 C9.295415424561748 13.76129235351458, 27.25237936363245 16.397595235351474, 33.74445459967479 15.207980901841074 C40.23652983571713 14.018366568330675, 41.52627231762434 6.707710711204756, 42.78611277049407 4.069544519428163 C44.0459532233638 1.43137832765157, 41.47040723150596 0.07413869087273872, 41.30349731689319 -0.6210162488184869 C41.136587402280426 -1.3161711885097125, 41.39208045130596 -0.5012016768815617, 41.78465328281745 -0.10138511871919031" stroke="#000000" stroke-width="1" fill="none"></path></g></g><g><g transform="translate(167.6860265273482 321.2695618396603) rotate(0 -0.5355938032828362 3.661754094697528)"><path d="M0.024434089288115413 1.057924026623368 C0.23664652866621805 1.8979185803482927, 0.1069196141014497 4.383358957742651, 0.3506891366094351 5.315313274040818 M-1.4218767431750894 0.5677301952615381 C-1.3000240619356433 1.5718396378929416, -1.1193164574479064 6.0319491987799605, -0.6757445302978158 6.755777994133532" stroke="#000000" stroke-width="1" fill="none"></path></g></g><g><g transform="translate(182.1860265273482 320.7695618396603) rotate(0 0.05335439499469885 2.5645438740029647)"><path d="M0.16232974492013463 -0.1808829601854085 C0.0042451974004508175 0.6365903838227193, -0.040493059530854164 5.259523386135697, -0.2013711098581552 5.115156036987901 C-0.3622491601854563 4.970788687840104, -0.8466278437525033 -0.2559791104247172, -0.8029385570436716 -1.0470870550721882 M-1.2115858683362604 -1.3214504596218468 C-1.6106860921159387 -0.35168586180855843, -1.7353707847371698 6.276849952079356, -1.255136406160891 6.450538207627833 C-0.7749020275846121 6.62422646317631, 1.4040368225798012 0.5181294162447253, 1.669820403121412 -0.2793209263309837" stroke="#000000" stroke-width="1" fill="none"></path></g></g><g><g transform="translate(160.6860265273482 342.2695618396603) rotate(0 19.891908266162545 0.5064582469645984)"><path d="M-0.6818718250840902 -1.0348686341196298 C3.945970374718309 0.33595802746713166, 21.515714290117224 6.677831581855814, 27.95616241134703 7.115758132562041 C34.39661053257684 7.553684683268268, 35.95828776198128 3.958558598781625, 37.96081690229475 1.592690670117736 C39.96334604260822 -0.7731772585461536, 39.698788454507785 -5.832512454564373, 39.97133725322783 -7.079449439421296 C40.243886051947875 -8.326386424278219, 39.70797238983214 -5.931437079484264, 39.59610969461501 -5.888931239023805 M1.161006737407297 1.036221387628466 C5.566694803293794 2.6748497947491705, 20.76409542347615 8.653519950552534, 26.722602213677018 8.451456403378398 C32.681109003877886 8.249392856204262, 34.621533121323836 2.235299422784398, 36.912047478612514 -0.17615989541634924 C39.20256183590119 -2.5876192136170966, 40.255103892342504 -5.140012735283624, 40.46568835740909 -6.017299505826086 C40.67627282247568 -6.894586276368549, 38.15192179089412 -5.669898416555176, 38.17555426901206 -5.439880518671125" stroke="#000000" stroke-width="1" fill="none"></path></g></g><g><g transform="translate(206.1860265273482 206.7695618396603) rotate(0 10.97506926532833 12.815444673355671)"><path d="M0.11882939301431183 0.013630193844437644 C0.33665045462548737 4.554095226898789, -1.6611901684353747 25.97271278935174, 1.84308706484735 26.655707246437668 C5.347364298130075 27.338701703523597, 17.785721464579304 8.044150040919583, 21.14449279271066 4.111596936360002 M-1.27792390499264 -1.0248178997263313 C-1.235018074847758 3.2625090238824486, -3.0694338758165642 24.620713791983825, 1.0751623102650045 25.13987880203873 C5.219758496346573 25.659043812093635, 20.062119517785806 5.624576372044782, 23.58965321149677 2.090172160603106" stroke="#000000" stroke-width="1" fill="none"></path></g></g><g><g transform="translate(205.1860265273482 204.2695618396603) rotate(0 52.508291902723954 -91.1243272735473)"><path d="M0.4411438766866922 -0.7439284566789865 C-7.819151868050295 -3.496489322558045, -36.70497550331056 -11.722520304098726, -48.97053235135972 -17.4671324852854 C-61.23608919940889 -23.211744666472075, -67.39426581623654 -22.4385488871485, -73.1521972116083 -35.21160154379904 C-78.91012860698005 -47.98465420044958, -83.70999821188549 -78.94035259125133, -83.51812072359026 -94.10544842518865 C-83.32624323529502 -109.27054425912598, -77.32659895978868 -116.80838795937598, -72.00093228183687 -126.20217654742301 C-66.67526560388505 -135.59596513547004, -55.62852037114402 -145.94016882615787, -51.56412065587938 -150.46817995347084 C-47.499720940614736 -154.9961910807838, -51.08940746548275 -151.32109965123237, -47.614533990249036 -153.37024331130087 C-44.13966051501532 -155.41938697136936, -35.23459797066947 -160.21197551923493, -30.714879804477096 -162.7630419138819 C-26.195161638284723 -165.31410830852886, -24.036955656235417 -167.00314880646764, -20.496224993094803 -168.67664167918264 C-16.95549432995419 -170.35013455189764, -12.762703666711847 -171.81869584756592, -9.470495825633407 -172.80399915017188 C-6.1782879845549665 -173.78930245277783, -7.600591188296676 -171.72058360216516, -0.7429779466241597 -174.58846149481832 C6.114635295048357 -177.45633938747147, 19.475606551145518 -186.87950298823415, 31.67518362440169 -190.01126650609075 C43.87476069765786 -193.14303002394735, 64.42792161541679 -192.82903554874162, 72.45448449291288 -193.3790426019579 C80.48104737040897 -193.9290496551742, 75.02502669331929 -194.86982011832296, 79.8345608893782 -193.31130882538855 C84.6440950854371 -191.75279753245414, 93.6464017653217 -185.52371948994696, 101.31168966926634 -184.0279748443514 C108.97697757321099 -182.53223019875585, 118.36983410355946 -185.53798708158234, 125.82628831304609 -184.33684095181525 C133.28274252253274 -183.13569482204815, 139.00891827183463 -181.7561002695312, 146.0504149261862 -176.8210980657488 C153.09191158053775 -171.8860958619664, 161.93388945894935 -161.8885937217623, 168.0752682391554 -154.72682772912086 C174.21664701936146 -147.5650617364794, 179.59245681203902 -142.2672260645777, 182.89868760742246 -133.8505021099001 C186.2049184028059 -125.43377815522253, 190.06397010323903 -119.33247988261282, 187.91265301145614 -104.22648400105535 C185.76133591967326 -89.12048811949789, 173.9302530630181 -57.221061718836424, 169.99078505672514 -43.21452682055533 C166.05131705043217 -29.207991922274232, 166.17977004684508 -25.070068741217256, 164.27584497369827 -20.187274611368775 C162.37191990055146 -15.304480481520294, 165.69512603518865 -18.271155409390726, 158.56723461784424 -13.917762041464448 C151.43934320049982 -9.56436867353817, 133.54056663351756 1.6919665253410736, 121.5084964696318 5.933085596188903 C109.47642630574605 10.174204667036733, 100.79947807230056 10.6560280200094, 86.37481363452972 11.528952383622528 C71.95014919675887 12.401876747235656, 45.52855387367308 12.007369406645497, 34.96050984300673 11.170631777867674 C24.392465812340383 10.333894149089852, 24.978628184770546 7.327773725613952, 22.966549450531602 6.508526610955596 M-0.7863943173922598 1.479905158225447 C-9.166366616928329 -1.0696324140392246, -37.21995651150122 -10.000766675528137, -49.37810729945078 -16.437451788838953 C-61.53625808740034 -22.87413690214977, -68.08486108545834 -24.282789493259045, -73.73529904508963 -37.14020552163944 C-79.38573700472092 -49.99762155001983, -83.36829577390725 -78.74196894373125, -83.28073505723849 -93.58194795912132 C-83.19317434056973 -108.4219269745114, -78.15954951727764 -116.48474850839003, -73.20993474507705 -126.1800796139799 C-68.26031997287646 -135.87541071956977, -57.858581828915824 -147.09679692909742, -53.58304642403498 -151.75393459266053 C-49.30751101915414 -156.41107225622363, -51.74456446175153 -152.1644665414654, -47.556722315791994 -154.12290559535847 C-43.36888016983246 -156.08134464925155, -32.687756408297766 -160.83291827485587, -28.455993548277764 -163.50456891601905 C-24.224230688257762 -166.17621955718224, -25.504712233984222 -168.50091331904753, -22.166145155671984 -170.1528094423376 C-18.827578077359746 -171.80470556562767, -11.983490410490582 -172.7456047909024, -8.424591078404337 -173.41594565575943 C-4.865691746318092 -174.08628652061645, -7.8421949824132025 -171.33732940103238, -0.8127491631545127 -174.17485463147983 C6.216696656104178 -177.0123798619273, 21.419149432734898 -187.20106578713282, 33.7520838371478 -190.44109703844413 C46.085018241560704 -193.68112828975543, 65.68005597785736 -193.12122618064905, 73.18485726332293 -193.61504213934765 C80.68965854878849 -194.10885809804626, 74.01103388960783 -194.90644807344302, 78.78089154994115 -193.40399279063567 C83.55074921027446 -191.90153750782832, 94.32838016505664 -186.33438588446006, 101.80400322532282 -184.60031044250354 C109.27962628558899 -182.86623500054702, 115.94230456169073 -184.43650262639545, 123.63462991153821 -182.99954013889655 C131.32695526138568 -181.56257765139765, 140.71505459741377 -180.81952823902793, 147.95795532440766 -175.97853551751004 C155.20085605140156 -171.13754279599215, 160.94237388387944 -160.9869179225527, 167.0920342735015 -153.95358380978928 C173.24169466312355 -146.92024969702587, 181.83496045982463 -141.7936438042484, 184.85591766213997 -133.7785308409296 C187.87687486445532 -125.76341787761076, 187.83325845773643 -120.78431993847714, 185.21777748739348 -105.86290602987633 C182.60229651705052 -90.94149212127552, 172.66891643718506 -58.33132730668411, 169.16303184008225 -44.250047389324756 C165.65714724297945 -30.168767471965403, 165.98957905149086 -26.249605484064666, 164.18246990477667 -21.37522652572021 C162.37536075806247 -16.50084756737575, 165.24701204772418 -19.401444306230793, 158.320376959797 -15.003773639257997 C151.3937418718698 -10.6061029722852, 134.91522726670527 0.6253911307888727, 122.62265937721357 5.010797476116568 C110.33009148772184 9.396203821444264, 99.5086076430045 10.379535470549017, 84.56496962284669 11.308664432708174 C69.62133160268888 12.23779339486733, 42.98669887160882 11.414564762854328, 32.96083125626669 10.585571249071508 C22.934963640924547 9.756577735288689, 25.865667741255212 7.304204797092825, 24.40976393079385 6.334703350011259" stroke="#000000" stroke-width="1" fill="none"></path></g></g><g transform="translate(161.6860265273482 54.7695618396603) rotate(0 103.5 62.5)"><text x="0" y="18" font-family="Virgil, Segoe UI Emoji" font-size="20px" fill="#000000" text-anchor="start" style="white-space: pre;" direction="ltr">Yeah! We're all </text><text x="0" y="43" font-family="Virgil, Segoe UI Emoji" font-size="20px" fill="#000000" text-anchor="start" style="white-space: pre;" direction="ltr">Application Engineers</text><text x="0" y="68" font-family="Virgil, Segoe UI Emoji" font-size="20px" fill="#000000" text-anchor="start" style="white-space: pre;" direction="ltr">and now we have a</text><text x="0" y="93" font-family="Virgil, Segoe UI Emoji" font-size="20px" fill="#000000" text-anchor="start" style="white-space: pre;" direction="ltr">name others can call</text><text x="0" y="118" font-family="Virgil, Segoe UI Emoji" font-size="20px" fill="#000000" text-anchor="start" style="white-space: pre;" direction="ltr">us by! </text></g><g><g transform="translate(591.6860265273482 231.07725414735262) rotate(0 31.934750631945803 108.69834607885264)"><path d="M-0.8215573791414499 0.20375146307051173 C5.198968478894002 -1.7515296664853148, 24.641765845366386 -8.967032164879733, 37.00995079975287 -11.618791282262952 C49.37813575413936 -14.270550399646172, 62.36985627069873 -16.35513658623854, 73.38755234717746 -15.706803241228807 C84.40524842365619 -15.058469896219071, 94.6223584990567 -11.296994601237829, 103.11612725862524 -7.728791212204544 C111.60989601819378 -4.160587823171259, 118.87616775029169 1.4319358699501112, 124.35016490458865 5.702417092970904 C129.8241620588856 9.972898315991698, 132.18663477310196 13.139440096255662, 135.96011018440703 17.894096125920214 C139.7335855957121 22.648752155584766, 144.3282709732365 29.51173884340391, 146.99101737241904 34.23035327095821 C149.65376377160158 38.94896769851251, 149.54570995195752 28.47791145083803, 151.9365885795023 46.20578269124602 C154.3274672070471 63.933653931654014, 162.52005365988583 118.54611378043695, 161.33628913768788 140.59758071340616 C160.15252461548994 162.64904764637538, 149.06855188418075 170.24236026779766, 144.83400144631463 178.51458428906128 C140.5994510084485 186.7868083103249, 139.28017917161762 187.11340853761976, 135.92898651049117 190.23092484098788 C132.57779384936472 193.348441144356, 126.69223739268872 195.42195171139753, 124.72684547955592 197.21968210926994 C122.76145356642311 199.01741250714235, 127.09772753647691 197.67257994588172, 124.13663503169437 201.01730722822242 C121.17554252691183 204.36203451056312, 116.21425996706458 212.5890240228233, 106.96029045086065 217.2880458033142 C97.70632093465673 221.98706758380507, 80.14270826968826 226.18370663102422, 68.61281793447078 229.21143791116768 C57.0829275992533 232.23916919131113, 51.89252976355849 235.57088339197898, 37.78094843955578 235.45443348417484 C23.669367115553065 235.3379835763707, -1.9800934724987957 231.2874761932075, -16.056670009545496 228.5127384643428 C-30.133246546592197 225.73800073547807, -36.43154947183649 225.36262447030688, -46.67851078272442 218.80600711098657 C-56.925472093612356 212.24938975166626, -69.26701432870557 205.1051852069508, -77.53843787487308 189.17303430842085 C-85.8098614210406 173.2408834098909, -93.0561573264595 138.03482267847994, -96.3070520597295 123.21310171980693 C-99.5579467929995 108.3913807611339, -98.52064093755413 109.5925853749785, -97.04380627449314 100.24270855638271 C-95.56697161143214 90.89283173778692, -92.39341569534281 77.39507266794067, -87.44604408136347 67.11384080823223 C-82.49867246738413 56.83260894852378, -75.78570737356364 48.5809091692456, -67.3595765906171 38.55531739813203 C-58.93344580767055 28.529725627018465, -44.010414422236586 12.690552423464554, -36.889259383684205 6.960290181550829 C-29.768104345131825 1.2300279396371039, -30.395248993304822 6.833280087348326, -24.632646359302818 4.173743946649677 C-18.870043725300814 1.514207805951027, -7.998442068839344 -6.7868485317111755, -2.31364357967218 -8.996926662641068 C3.3711549094949844 -11.20700479357096, 5.757602692806191 -9.596312988501694, 9.476144575700165 -9.086724838929673 C13.194686458594138 -8.577136689357651, 16.329578187765538 -5.249247084605806, 19.997607717691654 -5.939397765208935 C23.66563724761777 -6.6295484458120635, 29.276030276916398 -13.091220919682833, 31.48432175525686 -13.227628922548444 C33.69261323359732 -13.364036925414055, 33.208319324341026 -7.494817814546127, 33.24735658773443 -6.757845782402603 M0.9479862674698234 -0.7348829641565682 C6.7404976813924975 -3.0453958616052326, 24.201997122154204 -10.533070340142244, 36.10751412138055 -13.37969299269125 C48.01303112060689 -16.226315645240255, 61.10109817404104 -18.93722034975598, 72.38108826282789 -17.814618879450606 C83.66107835161473 -16.692017409145233, 95.32700974874109 -10.656521085883732, 103.78745465410164 -6.644084170859007 C112.24789955946218 -2.6316472558342827, 117.56322740790264 2.2586684082553345, 123.14375769499112 6.260002610697743 C128.7242879820796 10.26133681314015, 133.18299130452084 12.825568216044726, 137.27063637663255 17.363921043795443 C141.35828144874426 21.90227387154616, 145.42874131114147 28.73541985516265, 147.66962812766144 33.490119577202044 C149.91051494418141 38.244819299241435, 148.19182855832372 28.21915935450542, 150.71595727575234 45.8921193760318 C153.24008599318097 63.56507939755818, 163.64761158848526 117.49488520290508, 162.81440043223313 139.52787970636035 C161.981189275981 161.56087420981564, 150.16388584308226 169.99789040041173, 145.71669033823957 178.09008639676347 C141.2694948333969 186.1822823931152, 139.85521058568688 185.00479707367813, 136.13122740317712 188.08105568447078 C132.40724422066737 191.15731429526343, 125.30826146608831 194.43999878365165, 123.37279124318111 196.54763806151942 C121.43732102027391 198.6552773393872, 127.36795231516635 197.20287206403617, 124.51840606573393 200.7268913516774 C121.6688598163015 204.25091063931865, 115.52509540130022 213.10627001103583, 106.27551374658654 217.6917537873668 C97.02593209187286 222.27723756369775, 80.3238052765233 225.60732356540566, 69.02091613745183 228.23979400966311 C57.71802699838037 230.87226445392056, 52.29556928934304 233.31183253809328, 38.45817891215773 233.48657645291144 C24.620788534972412 233.6613203677296, -0.16386138961776098 232.18634894357177, -14.003426125660052 229.28825749857202 C-27.842990861702344 226.39016605357227, -34.31501663941513 222.6789782818913, -44.57920950409601 216.098027782913 C-54.8434023687769 209.5170772839347, -67.10217533750316 205.56812953867873, -75.58858331374536 189.80255450470224 C-84.07499128998757 174.03697947072575, -91.73032048793841 136.06485492872787, -95.49765736154923 121.50457757905409 C-99.26499423516005 106.9443002293803, -99.60388922137994 111.71467681907595, -98.19260455541024 102.44089040665959 C-96.78131988944054 93.16710399424323, -92.12731766688415 76.10300439567041, -87.02994936573097 65.86185910455595 C-81.93258106457779 55.62071381344148, -76.1732781313923 50.41285802234346, -67.60839474849115 40.994018659972795 C-59.04351136559 31.575179297602133, -43.07732653562745 15.475926933119496, -35.64064906832407 9.348822930331973 C-28.2039716010207 3.221718927544452, -28.19229343973592 7.360806411702438, -22.988329944670912 4.23139464324767 C-17.784366449605905 1.1019828747929021, -10.025239171491833 -7.0797906700626765, -4.41686809793403 -9.427647680396635 C1.1915029756237727 -11.775504690730594, 6.4276423275480346 -10.253104365010467, 10.661896496675908 -9.855747418756087 C14.89615066580378 -9.458390472501707, 17.573042732814308 -6.662193035270386, 20.988656916833214 -7.043506002870356 C24.40427110085212 -7.4248189704703265, 29.362045746981572 -12.048465403548631, 31.155581600789336 -12.143625224355908 C32.9491174545971 -12.238785045163185, 31.769838638428954 -8.376007476205427, 31.749872039679794 -7.614464927714018" stroke="#000000" stroke-width="1" fill="none"></path></g></g><g transform="translate(641.6860265273482 252.61571568581417) rotate(0 33.076923076923094 31.153846153846132)"><path d="M47.04900324990043 3.606975785001076 C53.50675387445665 5.7166886330527245, 60.62721384142388 11.615530434548546, 63.69186991335086 17.568293498773528 C66.75652598527783 23.52105656299851, 67.30752840636046 32.74566862981369, 65.4369396814623 39.323554170350974 C63.56635095656415 45.901439710888255, 58.150465484242574 53.360419522973324, 52.46833756396191 57.03560674199722 C46.78620964368125 60.71079396102112, 38.355847082381885 61.944770610475516, 31.344172159778346 61.374677484494356 C24.332497237174806 60.804584358513196, 15.584083687037321 58.14409322185459, 10.398288028340673 53.61504798611024 C5.212492369644025 49.08600275036589, 1.0554613698654163 40.934352592645254, 0.2293982075984573 34.200406070028244 C-0.5966649546685018 27.466459547411237, 1.5324703062645804 18.643894425066556, 5.441909054738918 13.211368850408192 C9.351347803213256 7.7788432757498285, 16.763264874134205 3.2852716850690484, 23.686030698444483 1.605252622078062 C30.608796522754762 -0.07476644091292428, 42.48193186195172 2.645121167570569, 46.97850400060058 3.131254472462274 C51.47507613924944 3.617387777353979, 49.682866683163 3.802270816147588, 50.66546353033764 4.522052451428291 C51.64806037751228 5.241834086708994, 53.3013034884479 7.125095352872643, 52.8740850836484 7.44994428414649 M39.76476196805847 -0.02322911729987709 C46.55624482176994 0.8039930763938449, 55.776664527475276 5.862354121216246, 60.106286458064545 11.393167030294663 C64.43590838865381 16.92397993937308, 66.2485588419963 26.496601637247675, 65.74249355159407 33.161648337170625 C65.23642826119183 39.82669503709358, 61.44076038579885 46.478805356948655, 57.069894715651124 51.38344722983237 C52.699029045503394 56.288089102716086, 46.31292793815058 61.36617043284804, 39.51729953070771 62.58949957447291 C32.72167112326484 63.81282871609778, 22.68704859096979 62.22587658488803, 16.296124270993914 58.723422079581596 C9.905199951018037 55.220967574275164, 3.5170785290722772 47.92152791391611, 1.1717536108524413 41.57477254263432 C-1.1735713073673946 35.22801717135253, -0.547690686386892 26.932849860018884, 2.224174761674899 20.64288985189088 C4.996040209736689 14.35292984376288, 11.491002209212912 7.169066409425721, 17.802946299223187 3.835012493866305 C24.114890389233462 0.5009585783068897, 36.60572358241583 1.3730776881725841, 40.09583930173654 0.6385663585343906 C43.58595502105725 -0.09594497110380296, 39.0232614740549 -0.45509887733840654, 38.74364061514747 -0.5720554839628562 C38.46401975624004 -0.689012090587306, 38.14967712026895 -0.7844228012012889, 38.41811414829196 -0.06317328121230759" stroke="#000000" stroke-width="1" fill="none"></path></g><g transform="translate(531.6860265273482 340.30802337812185) rotate(0 40.38461538461536 38.84615384615387)"><path d="M45.96057853228957 1.2090052966387859 C53.67108248766575 1.5322820304083222, 63.44763262202427 5.504184176351086, 69.15661824200346 10.573079903484853 C74.86560386198265 15.64197563061862, 78.9665098648056 24.197229140729963, 80.21449225216469 31.62237965944139 C81.46247463952378 39.04753017815281, 80.06451977940972 48.119573155970954, 76.64451256615797 55.1239830157534 C73.22450535290622 62.12839287553585, 66.63315221758143 69.78347330124332, 59.69444897265423 73.64883881813608 C52.75574572772704 77.51420433502885, 42.906051094994744 79.3217187382916, 35.012293096594824 78.31617611710998 C27.118535098194904 77.31063349592836, 17.980998438187413 73.10700661098403, 12.331900982254709 67.61558309104633 C6.682803526322005 62.124159571108635, 2.5898328173112075 53.038679534032916, 1.1177083609986056 45.367634997483776 C-0.3544160953139961 37.69659046093464, 0.06616088783568719 28.346518198771772, 3.499154244379099 21.589315871751477 C6.9321476009225105 14.832113544731182, 14.845414732570692 8.242507584724516, 21.715668500259078 4.824421035362015 C28.585922267947463 1.4063344859995137, 39.54984416759014 1.512640118092121, 44.72067685050941 1.0807965755764712 C49.89150953342869 0.6489530330608215, 50.41575606626073 1.4547824196829162, 52.74066459777475 2.233359780268117 C55.06557312928878 3.0119371408533175, 58.85414871047834 5.056325643504267, 58.670128039593564 5.752260739087674 M55.47967756553926 3.4858463710566525 C62.44751313330417 5.902014453219319, 71.48665189305541 13.942425193810685, 75.48298872266655 20.277403516518657 C79.47932555227769 26.61238183922663, 80.05334932247783 34.38337163908189, 79.4576985432061 41.49571630730448 C78.86204776393438 48.60806097552706, 76.65023934300834 57.24827453582019, 71.90908404703625 62.95147152585417 C67.16792875106415 68.65466851588815, 58.705715869292284 73.87073979534394, 51.01076676737353 75.71489824750837 C43.31581766545478 77.55905669967281, 33.267346083656214 76.5906689321013, 25.73938943552375 74.01642223884078 C18.211432787391285 71.44217554558026, 10.333255041062866 66.34925773815971, 5.8430268785787405 60.269418087945255 C1.3527987160946155 54.189578437730795, -1.7452714746346931 45.324488617032976, -1.201979539381 37.53738433755402 C-0.6586876041273069 29.750280058075074, 3.579126705134975 19.45512006786308, 9.1027784901009 13.54679241107155 C14.626430275066824 7.63846475428002, 24.03535293917122 4.001294469293758, 31.939931170414546 2.0874183968048428 C39.844509401657874 0.1735423243159271, 52.27447953269932 1.819729679208687, 56.53024787756087 2.0635359761380556 C60.78601622242242 2.3073422730674245, 57.80534053884371 3.1892342756810557, 57.474541239583864 3.550256178381055 C57.14374194032402 3.911278081081054, 54.8216661267919 3.739376073078116, 54.54545208200182 4.229667392338051" stroke="#000000" stroke-width="1" fill="none"></path></g><g><g transform="translate(555.532180373502 360.30802337812185) rotate(0 0.277633836460609 3.3289389184382685)"><path d="M1.1710829202085733 -0.25635861195623877 C1.1213006278547633 1.2667097418067517, 0.5578608438658648 7.885409636308349, 0.48267302963017755 8.094428665448822 C0.4074852153944903 8.303447694589295, 0.8906055232557644 2.183315643524891, 0.7199560347944498 0.9977555628865955 M0.32676272397860906 -1.4365508285723627 C0.025515747019200563 -0.12527307165213797, -0.6167272359032996 6.484211098977275, -0.61581524728731 6.586813581415363 C-0.6149032586713203 6.689416063853451, 0.3260100149597215 0.45353468524864926, 0.3322346556745468 -0.820935933943838" stroke="#000000" stroke-width="1" fill="none"></path></g></g><g><g transform="translate(577.8398726811944 358.7695618396603) rotate(0 -0.0567877224377753 4.935248761996604)"><path d="M0.6825782362371682 -0.8659585956484079 C0.728399485722184 1.038241962219278, 0.11416729129850867 8.902651603644093, 0.11262945570051675 10.736456119641662 M-0.41820691907778373 1.2938091962970795 C-0.5063508024252951 2.917082795246194, -0.8895137497223915 7.295120483779659, -0.7762855436839164 9.000520833674818" stroke="#000000" stroke-width="1" fill="none"></path></g></g><g><g transform="translate(553.2244880658096 387.23110030119875) rotate(0 16.45446180480178 0.1562177256761288)"><path d="M0.5972544427961111 -1.1307917889207602 C6.258221315048074 -0.968132084235549, 28.326029069234604 -0.49695282541215424, 33.45724931367895 -0.13376402221620087 M-0.5483257040753962 0.8899385765567422 C5.099704410373604 1.3423623744025828, 27.38896007701474 1.605723729468882, 33.1127212781947 1.333435117341578" stroke="#000000" stroke-width="1" fill="none"></path></g></g><g><g transform="translate(663.2244880658096 269.5387926088911) rotate(0 -0.0036091278111598513 3.9083370806262394)"><path d="M0.2820260044187308 0.8772592965513468 C0.583601815817095 2.0073538696823183, 1.4652873017182173 7.067956616242327, 1.352734599291307 6.83645776685039 C1.2401818968643965 6.604958917458452, 0.015873916265703225 0.8139146244583192, -0.3932902101427317 -0.5117337998002768 M-1.0290490726009012 0.29221648190170546 C-0.7944749413382639 1.6142092233581014, 0.7670981123214187 8.287595243376591, 0.7110286464457931 8.328407961052754 C0.6549591805701676 8.369220678728917, -1.0079556857001413 2.025198131172127, -1.3654658678546547 0.5370927879586818" stroke="#000000" stroke-width="1" fill="none"></path></g></g><g><g transform="translate(678.6091034504251 268.0003310704295) rotate(0 1.115319584627514 3.000917247732218)"><path d="M-0.5506130632013082 -1.0431737903505562 C-0.38047384246226557 -0.006695650852265089, 0.978104522509193 5.560329112267243, 0.8964275267549511 5.730067059254395 C0.8147505310007092 5.8998050062415475, -1.0047037981354834 0.9891140472525934, -1.04067503772676 -0.024746108427643687 M1.3611763492785394 1.0235560243763029 C1.9380019874780237 2.270091396850554, 3.28029822018153 7.002309453660743, 3.271314206981724 7.045008285815017 C3.262330193781918 7.087707117969291, 1.6383556075303616 2.3596849432410876, 1.3072722700797024 1.2797490173019468" stroke="#000000" stroke-width="1" fill="none"></path></g></g><g><g transform="translate(658.6091034504251 294.92340799350643) rotate(0 14.679676283736853 -0.7523922563919427)"><path d="M-0.9318452004343272 -0.2996701654046774 C3.649230750640595 -0.6029486473649741, 23.09499717424494 -0.893966120108962, 27.882984212355996 -0.9921622809022664 M0.7797973399981855 -1.5026009475812316 C5.727532261190676 -1.7607328843697907, 25.97432874484789 -0.21972154494374993, 30.29119776790806 0.024377772845327828" stroke="#000000" stroke-width="1" fill="none"></path></g></g><g><g transform="translate(347.6283342196558 627.2311003011987) rotate(208.5416942705968 51.33886218340723 -89.8864435445222)"><path d="M0.8448395725339652 0.4510057870298625 C-7.27979592916866 -2.245963567122817, -37.49195997752249 -9.850074988231064, -49.8996542815119 -15.9118228610605 C-62.30734858550131 -21.973570733889936, -68.18642356830338 -23.085398906096813, -73.6013262514025 -35.91948144994676 C-79.01622893450161 -48.7535639937967, -82.60726286607485 -78.0024749652793, -82.38907038010657 -92.91631812416017 C-82.1708778941383 -107.83016128304104, -77.43571566380561 -115.98080756030977, -72.29217133559287 -125.40254040323198 C-67.14862700738013 -134.82427324615418, -55.8950770461311 -144.49742712738615, -51.52780441083014 -149.44671518169343 C-47.160531775529186 -154.39600323600072, -49.704866056020066 -152.9227234777063, -46.088535523787144 -155.09826872907578 C-42.47220499155422 -157.27381398044525, -34.01832569477459 -160.33294579746823, -29.829821217432617 -162.4999866899103 C-25.641316740090645 -164.66702758235235, -24.193256255363423 -166.58936931453644, -20.95750865973532 -168.1005140837282 C-17.72176106410722 -169.61165885291996, -14.012848655755322 -170.7674619651089, -10.415335643664003 -171.56685530506076 C-6.8178226315726835 -172.3662486450126, -6.2898511055856945 -169.78605106038353, 0.6275694128125906 -172.8968741234392 C7.544989931210876 -176.00769718649488, 19.295930893843373 -186.80315661989152, 31.089187466725708 -190.23179368339478 C42.882444039608046 -193.66043074689804, 63.34346788289646 -192.8951580381642, 71.3871088501066 -193.4686965044588 C79.43074981731674 -194.04223497075338, 74.42633977693816 -195.2859607513994, 79.35103326998652 -193.67302448116243 C84.27572676303487 -192.06008821092547, 93.32190253299972 -185.42616290412843, 100.9352698083967 -183.79107888303696 C108.54863708379368 -182.1559948619455, 117.52378814977904 -185.0222220158825, 125.03123692236841 -183.86252035461365 C132.53868569495776 -182.7028186933448, 138.70440466764072 -181.73228831452627, 145.9799624439329 -176.83286891542375 C153.25552022022507 -171.93344951632122, 162.56076950194935 -161.76203806959091, 168.6845835801214 -154.4660039599985 C174.80839765829344 -147.16996985040606, 179.7603427764028 -141.44384025894107, 182.72284691296517 -133.05666425786913 C185.68535104952753 -124.6694882567972, 188.5201939896991 -118.94925656877457, 186.4596083994955 -104.1429479535669 C184.3990228092919 -89.33663933835923, 174.10283534886938 -58.10154139362275, 170.35933337174356 -44.21881256662309 C166.61583139461774 -30.336083739623433, 165.7453884359449 -25.904808503016827, 163.99859653674065 -20.84657499156892 C162.2518046375364 -15.788341480121016, 166.772084207957 -18.423197708154717, 159.87858197651803 -13.869411497935653 C152.98507974507908 -9.315625287716589, 135.10676299693682 1.9566251380989943, 122.63758314810693 6.476142269745469 C110.16840329927702 10.995659401391944, 99.73537450991572 12.51296814121306, 85.0635028835386 13.247691291943193 C70.39163125716149 13.982414442673326, 45.08514449559152 12.193280031656226, 34.6063533898443 10.884481174126268 C24.12756228409708 9.57568231659631, 24.27040807766219 6.034983498230576, 22.190756249055266 5.394898146763444 M-0.17075838122516873 -0.35782012011855846 C-8.343848810133833 -3.432580637000501, -38.42010783467442 -12.025287568829953, -50.795018242932855 -17.725604611895978 C-63.16992865119129 -23.425921654962004, -68.6829016573603 -22.219235772155223, -74.4202208307758 -34.55972237851471 C-80.1575400041913 -46.90020898487419, -85.34662437154601 -76.70170556412388, -85.21893328342587 -91.76852425005286 C-85.09124219530572 -106.83534293598184, -78.93595249090343 -115.22268839981407, -73.65407430205494 -124.9606344940886 C-68.37219611320644 -134.69858058836311, -58.26508075827112 -145.50661583847057, -53.52766415033489 -150.1962008157 C-48.79024754239867 -154.88578579292943, -49.02313881232092 -150.94694287683814, -45.2295746544376 -153.0981443574652 C-41.436010496554275 -155.24934583809227, -35.10294118755807 -160.40739794916163, -30.766279203034937 -163.10340969946236 C-26.4296172185118 -165.7994214497631, -22.693070647654434 -167.86989959385247, -19.209602747298778 -169.27421485926956 C-15.72613484694312 -170.67853012468666, -13.27996151878188 -170.53247312015543, -9.865471800900995 -171.52930129196494 C-6.45098208302011 -172.52612946377445, -5.843316356278955 -172.04716727481537, 1.2773355599865317 -175.25518389012666 C8.39798747625202 -178.46320050543795, 21.145144055349128 -187.6946375754103, 32.85843969669193 -190.77740098383276 C44.571735338034735 -193.86016439225523, 63.416264035763845 -193.22206297701842, 71.55710940804333 -193.75176434066145 C79.69795478032282 -194.28146570430448, 76.75803634212663 -195.54106253888457, 81.70351193036885 -193.95560916569084 C86.64898751861107 -192.37015579249712, 93.83351883576563 -185.5756120910868, 101.22996293749661 -184.23904410149902 C108.62640703922759 -182.90247611191123, 118.3120844821756 -187.30996090120323, 126.08217654075473 -185.93620122816412 C133.85226859933385 -184.56244155512502, 140.86067135101806 -180.7832150076454, 147.85051528897137 -175.9964860632643 C154.84035922692468 -171.20975711888323, 161.8983659494544 -164.45392055299132, 168.0212401684746 -157.21582756187766 C174.14411438749482 -149.977734570764, 181.4809865554795 -141.14798045065254, 184.58776060309262 -132.56792811658232 C187.69453465070575 -123.98787578251212, 189.138999884588 -120.8099043848738, 186.66188445415347 -105.73551355745643 C184.18476902371893 -90.66112273003905, 173.54210442310819 -56.62405881073326, 169.72506802048534 -42.121583152078095 C165.9080316178625 -27.61910749342293, 165.3271470948681 -23.25258362080902, 163.75966603841633 -18.720659605525434 C162.19218498196454 -14.188735590241848, 167.49937326119593 -19.02330881184588, 160.32018168177456 -14.930039060376584 C153.1409901023532 -10.83676930890729, 133.03367672091971 1.028995515244703, 120.68451656188816 5.838958903290331 C108.3353564028566 10.64892229133596, 100.93584971036762 12.6013691553846, 86.22522072758525 13.929741267897189 C71.51459174480289 15.258113380409778, 42.920499570034444 15.358078465995689, 32.42074266519398 13.809191578365862 C21.92098576035351 12.260304690736035, 24.785632077914972 5.942699700333177, 23.22667929854244 4.636419942118227" stroke="#000000" stroke-width="1" fill="none"></path></g></g><g><g transform="translate(468.6091034504251 463.9234079935065) rotate(0 25.325302497340886 0.9524641193974048)"><path d="M0.35774752534925947 0.8307961340993641 C8.006934893045294 -2.1227008878325098, 37.69185786055261 -14.954854292202858, 45.514035264259384 -17.265297398572965 C53.33621266796616 -19.57574050494307, 48.53615338457515 -15.104075739695157, 47.290811947589916 -13.031862504121273 C46.04547051060468 -10.95964926854739, 39.86766148583043 -7.958571319157954, 38.04198664234796 -4.8320179851296645 C36.21631179886548 -1.7054646511013742, 38.05000677619806 2.133504109132279, 36.33676288669508 5.727457500048468 C34.62351899719209 9.321410890964657, 30.20762115922298 14.40918198297604, 27.76252330533007 16.731702360367468 C25.31742545143716 19.054222737758895, 22.58760280447694 19.22625696132765, 21.666175763337606 19.662579764397037 C20.74474872219827 20.098902567466425, 22.198498198839 19.501427949936282, 22.23396105849406 19.349639178783786 M-0.913573753181845 0.2213601591624319 C7.164954155280906 -2.6648935126212416, 39.884156676082405 -14.258729853540778, 47.89008908359911 -16.31138405083324 C55.89602149111581 -18.364038248125702, 48.75893204193329 -14.105506404931122, 47.12202069191839 -12.094565024592338 C45.48510934190348 -10.083623644253555, 40.02801988049421 -6.768502503788795, 38.06862098350965 -4.245735768800537 C36.109222086525094 -1.7229690338122783, 36.84179346087134 -0.3314400269918254, 35.36562731001105 3.0420353853372126 C33.88946115915076 6.415510797666251, 31.91922631258618 13.41153997790872, 29.211624078347924 15.995116705173691 C26.50402184410967 18.578693432438662, 20.46037619993704 18.030829215765603, 19.120013904581512 18.54349574892704 C17.779651609225983 19.056162282088476, 20.41579217327955 18.698868169476434, 21.16945030621475 19.071115904142303" stroke="#000000" stroke-width="1" fill="none"></path></g></g><g transform="translate(309.3783342196558 472.6157156858141) rotate(0 103.5 50)"><text x="0" y="18" font-family="Virgil, Segoe UI Emoji" font-size="20px" fill="#000000" text-anchor="start" style="white-space: pre;" direction="ltr">Ahh! We're both</text><text x="0" y="43" font-family="Virgil, Segoe UI Emoji" font-size="20px" fill="#000000" text-anchor="start" style="white-space: pre;" direction="ltr">admins and now </text><text x="0" y="68" font-family="Virgil, Segoe UI Emoji" font-size="20px" fill="#000000" text-anchor="start" style="white-space: pre;" direction="ltr">everyone has a name</text><text x="0" y="93" font-family="Virgil, Segoe UI Emoji" font-size="20px" fill="#000000" text-anchor="start" style="white-space: pre;" direction="ltr">to yell at us!</text></g><g transform="translate(586.5004269595812 657.1936132996689) rotate(0 84 10)"><text x="168" y="14" font-family="Virgil, Segoe UI Emoji" font-size="16px" fill="#adb5bd" text-anchor="end" style="white-space: pre;" direction="ltr">Made with Excalidraw</text></g></svg>